<svg height="414pt" viewBox="0 0 414 414" width="414pt" xmlns="http://www.w3.org/2000/svg"><path d="m414 207c0 114.324219-92.675781 207-207 207s-207-92.675781-207-207 92.675781-207 207-207 207 92.675781 207 207zm0 0" fill="#f0c48a"/><path d="m336.511719 272.523438c-4.695313-20.476563-22.914063-34.992188-43.921875-34.992188h-171.179688c-21.007812 0-39.226562 14.515625-43.921875 34.992188l-14.058593 100.773437h287.140624zm0 0" fill="#a4cff2"/><path d="m336.511719 272.523438c-4.695313-20.476563-22.914063-34.992188-43.921875-34.992188h-23.339844c21.007812 0 39.226562 14.515625 43.921875 34.992188l14.058594 100.773437h23.339843zm0 0" fill="#7babf1"/><g fill="#4c4372"><path d="m350.570312 379.296875h-287.140624c-1.738282 0-3.386719-.75-4.527344-2.0625-1.140625-1.308594-1.65625-3.046875-1.414063-4.765625l14.058594-100.773438c.023437-.171874.054687-.34375.09375-.511718 5.351563-23.347656 25.816406-39.652344 49.769531-39.652344h171.179688c23.953125 0 44.417968 16.304688 49.769531 39.652344.039063.167968.070313.339844.09375.511718l14.0625 100.773438c.238281 1.71875-.277344 3.457031-1.417969 4.765625-1.140625 1.3125-2.789062 2.0625-4.527344 2.0625zm-280.246093-12h273.351562l-13.070312-93.675781c-4.179688-17.730469-19.777344-30.089844-38.015625-30.089844h-171.179688c-18.238281 0-33.835937 12.359375-38.015625 30.089844zm0 0"/><path d="m113.066406 379.300781c-.285156 0-.574218-.023437-.867187-.066406-3.277344-.472656-5.554688-3.511719-5.082031-6.792969l9.789062-67.882812c.472656-3.28125 3.503906-5.558594 6.792969-5.082032 3.28125.472657 5.554687 3.515626 5.082031 6.792969l-9.785156 67.882813c-.429688 2.992187-3 5.148437-5.929688 5.148437zm0 0"/><path d="m300.9375 379.300781c-2.9375 0-5.5-2.15625-5.933594-5.148437l-9.785156-67.882813c-.472656-3.28125 1.804688-6.320312 5.082031-6.792969 3.28125-.472656 6.320313 1.800782 6.796875 5.082032l9.785156 67.882812c.472657 3.28125-1.804687 6.324219-5.082031 6.792969-.292969.042969-.578125.066406-.863281.066406zm0 0"/></g><path d="m207 279.171875c-17.023438 0-30.824219-13.800781-30.824219-30.820313v-50.605468h61.648438v50.605468c0 17.019532-13.800781 30.820313-30.824219 30.820313zm0 0" fill="#d3e6f8"/><path d="m220.332031 276.148438c10.347657-4.972657 17.492188-15.550782 17.492188-27.796876v-50.605468h-17.492188zm0 0" fill="#a4cff2"/><path d="m207 285.171875c-20.304688 0-36.824219-16.519531-36.824219-36.820313v-50.605468c0-3.316406 2.6875-6 6-6h61.648438c3.3125 0 6 2.683594 6 6v50.605468c0 20.300782-16.519531 36.820313-36.824219 36.820313zm-24.824219-81.425781v44.605468c0 13.6875 11.136719 24.820313 24.824219 24.820313s24.824219-11.136719 24.824219-24.820313v-44.605468zm0 0" fill="#4c4372"/><path d="m280.914062 121.40625c0 52.699219-33.09375 110.136719-73.914062 110.136719s-73.914062-57.4375-73.914062-110.136719 33.09375-80.703125 73.914062-80.703125 73.914062 28.003906 73.914062 80.703125zm0 0" fill="#fff"/><path d="m207 40.703125c-2.554688 0-5.078125.109375-7.566406.328125 37.265625 3.273438 66.34375 30.976562 66.34375 80.375 0 49.402344-29.078125 102.964844-66.34375 109.476562 2.488281.433594 5.011718.660157 7.566406.660157 40.820312 0 73.914062-57.4375 73.914062-110.136719s-33.09375-80.703125-73.914062-80.703125zm0 0" fill="#d3e6f8"/><path d="m207 237.542969c-21.285156 0-41.644531-13.523438-57.320312-38.078125-14.359376-22.484375-22.59375-50.933594-22.59375-78.058594 0-26.546875 8.082031-48.789062 23.375-64.324219 14.203124-14.433593 34.285156-22.378906 56.539062-22.378906s42.335938 7.949219 56.539062 22.378906c15.292969 15.535157 23.375 37.777344 23.375 64.324219 0 27.125-8.234374 55.574219-22.59375 78.0625-15.675781 24.550781-36.035156 38.074219-57.320312 38.074219zm0-190.839844c-41.257812 0-67.914062 29.324219-67.914062 74.703125 0 24.53125 7.738281 51.296875 20.707031 71.601562 18.074219 28.308594 37.335937 32.535157 47.207031 32.535157s29.132812-4.226563 47.207031-32.535157c12.96875-20.304687 20.707031-47.070312 20.707031-71.601562 0-45.382812-26.65625-74.703125-67.914062-74.703125zm0 0" fill="#4c4372"/><path d="m169.945312 151.9375c-7.789062 0-15.113281-3.03125-20.621093-8.539062-2.34375-2.34375-2.34375-6.144532 0-8.484376 2.34375-2.34375 6.144531-2.34375 8.488281 0 3.238281 3.238282 7.546875 5.023438 12.132812 5.023438 4.582032 0 8.890626-1.785156 12.132813-5.023438 2.34375-2.34375 6.140625-2.34375 8.484375 0s2.34375 6.140626 0 8.484376c-5.507812 5.507812-12.828125 8.539062-20.617188 8.539062zm0 0" fill="#4c4372"/><path d="m244.058594 151.9375c-7.789063 0-15.113282-3.03125-20.621094-8.539062-2.34375-2.34375-2.34375-6.144532 0-8.484376 2.34375-2.34375 6.144531-2.34375 8.488281 0 3.238281 3.238282 7.546875 5.023438 12.132813 5.023438 4.582031 0 8.890625-1.785156 12.132812-5.023438 2.34375-2.34375 6.140625-2.34375 8.484375 0s2.34375 6.140626 0 8.484376c-5.507812 5.507812-12.828125 8.539062-20.617187 8.539062zm0 0" fill="#4c4372"/><path d="m172.582031 70.15625c-7.371093 7.371094-7.371093 19.328125 0 26.703125l28.578125 28.578125c3.226563 3.222656 8.453125 3.222656 11.675782 0l28.578124-28.578125c7.375-7.375 7.375-19.332031 0-26.703125-7.371093-7.375-19.328124-7.375-26.703124 0l-4.890626 4.890625c-1.558593 1.558594-4.082031 1.558594-5.640624 0l-4.894532-4.890625c-7.371094-7.375-19.328125-7.375-26.703125 0zm0 0" fill="#fd919e"/><path d="m241.417969 96.859375c6.253906-6.253906 7.183593-15.796875 2.824219-23.054687l-45.636719 49.078124 2.554687 2.554688c3.226563 3.226562 8.453125 3.226562 11.675782 0zm0 0" fill="#e8677d"/><path d="m207 133.851562c-3.648438 0-7.300781-1.390624-10.078125-4.167968l-28.582031-28.582032c-9.699219-9.703124-9.699219-25.488281 0-35.1875 4.699218-4.699218 10.949218-7.289062 17.59375-7.289062 6.648437 0 12.898437 2.589844 17.597656 7.289062l3.46875 3.46875 3.472656-3.46875c9.703125-9.703124 25.488282-9.699218 35.1875 0 9.703125 9.699219 9.703125 25.488282 0 35.1875l-28.578125 28.582032c-2.78125 2.777344-6.429687 4.167968-10.082031 4.167968zm-21.066406-63.226562c-3.4375 0-6.675782 1.339844-9.105469 3.773438 0 0 0 0-.003906 0-5.019531 5.023437-5.019531 13.195312 0 18.21875l28.582031 28.578124c.878906.878907 2.308594.878907 3.191406 0l28.578125-28.578124c5.023438-5.023438 5.023438-13.195313 0-18.21875-2.433593-2.433594-5.667969-3.773438-9.109375-3.773438s-6.675781 1.339844-9.109375 3.773438l-4.894531 4.890624c-1.886719 1.886719-4.394531 2.925782-7.0625 2.925782s-5.175781-1.039063-7.0625-2.925782l-4.894531-4.890624c-2.429688-2.433594-5.667969-3.773438-9.109375-3.773438zm-13.351563-.46875h.011719zm0 0" fill="#4c4372"/></svg>