<svg height="512" viewBox="0 0 59 59" width="512" xmlns="http://www.w3.org/2000/svg"><g id="036---Scatter-Plot" fill="none"><path id="Path" d="m59 54c-.0032948 1.1032019-.8967981 1.9967052-2 2h-52c-1.10320187-.0032948-1.9967052-.8967981-2-2v-52c.0032948-1.10320187.89679813-1.9967052 2-2 .53059053-.00282307 1.0395388.2101411 1.41.59.3798589.3704612.59282307.87940947.59 1.41v49c-.00157579.3100364.14291393.6027207.39.79.17454984.1354677.38905055.2093122.61.21h49c1.1032019.0032948 1.9967052.8967981 2 2z" fill="#1c85ad"/><circle id="Oval" cx="14" cy="45" fill="#a083ee" r="2"/><circle id="Oval" cx="16" cy="36" fill="#a083ee" r="2"/><circle id="Oval" cx="29" cy="38" fill="#a083ee" r="2"/><circle id="Oval" cx="35" cy="24" fill="#a083ee" r="2"/><circle id="Oval" cx="28" cy="17" fill="#a083ee" r="2"/><circle id="Oval" cx="23" cy="33" fill="#a083ee" r="2"/><circle id="Oval" cx="33" cy="32" fill="#a083ee" r="2"/><circle id="Oval" cx="47" cy="34" fill="#a083ee" r="2"/><circle id="Oval" cx="27" cy="26" fill="#a083ee" r="2"/><circle id="Oval" cx="43" cy="23" fill="#a083ee" r="2"/><circle id="Oval" cx="55" cy="5" fill="#a083ee" r="2"/><circle id="Oval" cx="37" cy="16" fill="#a083ee" r="2"/><circle id="Oval" cx="53" cy="21" fill="#a083ee" r="2"/><circle id="Oval" cx="45" cy="15" fill="#a083ee" r="2"/><circle id="Oval" cx="53" cy="13" fill="#a083ee" r="2"/><circle id="Oval" cx="47" cy="7" fill="#a083ee" r="2"/><circle id="Oval" cx="22" cy="41" fill="#a083ee" r="2"/><g fill="#136b87"><path id="Path" d="m1 25h2v2h-2c-.55228475 0-1-.4477153-1-1s.44771525-1 1-1z"/><path id="Path" d="m1 50h2v2h-2c-.55228475 0-1-.4477153-1-1s.44771525-1 1-1z"/><path id="Path" d="m1 35h2v2h-2c-.55228475 0-1-.4477153-1-1s.44771525-1 1-1z"/><path id="Path" d="m1 20h2v2h-2c-.55228475 0-1-.4477153-1-1s.44771525-1 1-1z"/><path id="Path" d="m1 10h2v2h-2c-.55228475 0-1-.4477153-1-1s.44771525-1 1-1z"/><path id="Path" d="m1 40h2v2h-2c-.55228475 0-1-.4477153-1-1s.44771525-1 1-1z"/><path id="Path" d="m1 15h2v2h-2c-.55228475 0-1-.4477153-1-1s.44771525-1 1-1z"/><path id="Path" d="m1 30h2v2h-2c-.55228475 0-1-.4477153-1-1s.44771525-1 1-1z"/><path id="Path" d="m1 45h2v2h-2c-.55228475 0-1-.4477153-1-1s.44771525-1 1-1z"/><path id="Path" d="m3 5v2h-2c-.55228475 0-1-.44771525-1-1s.44771525-1 1-1z"/><path id="Path" d="m8 56h2v2c0 .5522847-.44771525 1-1 1s-1-.4477153-1-1z"/><path id="Path" d="m13 56h2v2c0 .5522847-.4477153 1-1 1s-1-.4477153-1-1z"/><path id="Path" d="m18 56h2v2c0 .5522847-.4477153 1-1 1s-1-.4477153-1-1z"/><path id="Path" d="m23 56h2v2c0 .5522847-.4477153 1-1 1s-1-.4477153-1-1z"/><path id="Path" d="m28 56h2v2c0 .5522847-.4477153 1-1 1s-1-.4477153-1-1z"/><path id="Path" d="m38 56h2v2c0 .5522847-.4477153 1-1 1s-1-.4477153-1-1z"/><path id="Path" d="m43 56h2v2c0 .5522847-.4477153 1-1 1s-1-.4477153-1-1z"/><path id="Path" d="m33 56h2v2c0 .5522847-.4477153 1-1 1s-1-.4477153-1-1z"/><path id="Path" d="m48 56h2v2c0 .5522847-.4477153 1-1 1s-1-.4477153-1-1z"/><path id="Path" d="m55 56v2c0 .5522847-.4477153 1-1 1s-1-.4477153-1-1v-2z"/></g></g></svg>